<svg xmlns="http://www.w3.org/2000/svg" id="canvas" viewBox="546.174 839.212 781.695 285.680"><path d="M 671.72,847.51 C 671.18 845.51, 670.21 844.37, 667.90 843.35 C 665.59 842.33, 663.75 841.94, 660.17 842.41 C 656.59 842.89, 654.40 844.04, 649.99 845.71 C 645.58 847.38, 643.12 848.46, 638.13 850.77 C 633.14 853.08, 630.34 854.37, 625.05 857.27 C 619.75 860.18, 616.82 861.82, 611.66 865.29 C 606.50 868.76, 603.68 870.78, 599.26 874.61 C 594.83 878.44, 592.52 880.31, 589.54 884.44 C 586.56 888.58, 585.02 890.85, 584.36 895.29 C 583.70 899.72, 584.19 902.58, 586.25 906.62 C 588.31 910.65, 590.49 912.26, 594.67 915.46 C 598.86 918.66, 601.52 919.82, 607.18 922.61 C 612.83 925.39, 616.46 926.67, 622.94 929.39 C 629.43 932.11, 633.26 933.39, 639.61 936.20 C 645.96 939.01, 649.29 940.42, 654.70 943.44 C 660.11 946.46, 662.87 948.19, 666.65 951.30 C 670.42 954.40, 671.79 956.05, 673.57 958.95 C 675.34 961.86, 675.49 962.88, 675.52 965.83 C 675.54 968.78, 675.33 970.25, 673.69 973.71 C 672.05 977.16, 670.88 979.25, 667.32 983.11 C 663.76 986.97, 661.26 989.15, 655.90 993.01 C 650.54 996.86, 647.11 998.92, 640.51 1002.38 C 633.92 1005.84, 630.02 1007.57, 622.93 1010.32 C 615.83 1013.07, 611.95 1014.33, 605.03 1016.13 C 598.11 1017.93, 594.41 1018.55, 588.31 1019.30 C 582.22 1020.05, 579.22 1020.20, 574.54 1019.88 C 569.87 1019.57, 567.77 1018.72, 564.92 1017.73 C 562.06 1016.74, 561.24 1015.72, 560.27 1014.94 C 559.30 1014.16, 559.39 1014.60, 560.06 1013.83 C 560.72 1013.05, 562.00 1012.49, 563.61 1011.05 C 565.22 1009.60, 566.88 1008.89, 568.11 1006.59 C 569.34 1004.29, 570.27 1001.95, 569.77 999.55 C 569.26 997.14, 568.05 995.34, 565.60 994.57 C 563.15 993.79, 560.39 993.99, 557.52 995.66 C 554.65 997.34, 552.90 999.43, 551.26 1002.95 C 549.61 1006.47, 548.87 1009.42, 549.29 1013.26 C 549.72 1017.10, 550.76 1019.49, 553.38 1022.15 C 556.00 1024.81, 558.20 1025.53, 562.42 1026.55 C 566.64 1027.56, 569.10 1027.44, 574.47 1027.24 C 579.83 1027.03, 582.83 1026.63, 589.24 1025.52 C 595.65 1024.41, 599.38 1023.67, 606.53 1021.69 C 613.67 1019.70, 617.62 1018.40, 624.96 1015.60 C 632.29 1012.80, 636.28 1011.12, 643.22 1007.70 C 650.16 1004.28, 653.74 1002.36, 659.65 998.51 C 665.57 994.67, 668.47 992.70, 672.81 988.49 C 677.16 984.28, 679.11 982.05, 681.39 977.46 C 683.67 972.88, 684.42 970.15, 684.22 965.57 C 684.02 961.00, 683.03 958.58, 680.40 954.59 C 677.77 950.60, 675.60 948.99, 671.08 945.62 C 666.56 942.24, 663.58 940.75, 657.81 937.71 C 652.03 934.66, 648.63 933.29, 642.20 930.40 C 635.77 927.50, 631.95 926.12, 625.65 923.23 C 619.35 920.33, 615.83 918.81, 610.70 915.92 C 605.58 913.02, 603.27 911.46, 600.01 908.74 C 596.74 906.02, 595.73 904.75, 594.38 902.32 C 593.03 899.89, 592.85 899.23, 593.24 896.60 C 593.63 893.98, 594.10 892.46, 596.32 889.20 C 598.53 885.93, 600.42 883.84, 604.31 880.28 C 608.19 876.72, 610.89 874.63, 615.75 871.40 C 620.60 868.17, 623.46 866.62, 628.59 864.14 C 633.72 861.66, 636.55 860.57, 641.38 859.01 C 646.21 857.46, 648.75 856.87, 652.74 856.37 C 656.74 855.87, 658.57 856.57, 661.36 856.50 C 664.16 856.44, 664.87 856.66, 666.71 856.03 C 668.55 855.40, 669.57 855.07, 670.57 853.36 C 671.58 851.66, 672.25 849.52, 671.72 847.51" style="stroke: black; fill: black;"/><path d="M 723.47,932.42 C 723.75 934.14, 724.05 934.63, 725.23 936.00 C 726.41 937.37, 727.04 938.62, 729.36 939.26 C 731.69 939.90, 733.60 939.21, 736.85 939.20 C 740.10 939.19, 742.21 938.92, 745.59 939.23 C 748.97 939.54, 750.73 939.84, 753.74 940.73 C 756.75 941.63, 758.49 942.44, 760.64 943.71 C 762.79 944.99, 763.40 945.70, 764.49 947.11 C 765.57 948.51, 765.80 948.90, 766.08 950.74 C 766.35 952.58, 766.80 953.52, 765.86 956.31 C 764.92 959.09, 764.04 961.00, 761.36 964.67 C 758.68 968.33, 756.56 970.65, 752.46 974.65 C 748.36 978.65, 745.68 980.84, 740.87 984.65 C 736.06 988.46, 733.11 990.38, 728.40 993.71 C 723.69 997.04, 721.28 998.60, 717.33 1001.28 C 713.37 1003.97, 711.19 1004.58, 708.63 1007.14 C 706.06 1009.70, 705.08 1011.13, 704.49 1014.09 C 703.90 1017.06, 704.27 1019.16, 705.68 1021.97 C 707.08 1024.78, 708.59 1026.70, 711.51 1028.14 C 714.43 1029.59, 716.50 1029.30, 720.29 1029.20 C 724.08 1029.09, 726.19 1028.31, 730.45 1027.62 C 734.71 1026.92, 737.04 1026.39, 741.60 1025.73 C 746.16 1025.08, 748.97 1024.89, 753.25 1024.35 C 757.54 1023.80, 759.95 1024.12, 763.00 1023.02 C 766.05 1021.91, 767.63 1020.61, 768.52 1018.83 C 769.42 1017.05, 768.95 1015.38, 767.49 1014.12 C 766.03 1012.86, 764.37 1012.59, 761.24 1012.52 C 758.11 1012.45, 756.03 1013.20, 751.85 1013.78 C 747.66 1014.37, 744.77 1014.97, 740.32 1015.44 C 735.86 1015.91, 733.51 1016.18, 729.57 1016.11 C 725.64 1016.04, 723.59 1015.37, 720.64 1015.10 C 717.68 1014.83, 716.47 1014.45, 714.81 1014.76 C 713.14 1015.08, 712.74 1016.16, 712.31 1016.67 C 711.88 1017.18, 711.92 1017.72, 712.66 1017.32 C 713.40 1016.92, 714.03 1016.56, 716.00 1014.69 C 717.97 1012.82, 719.14 1010.96, 722.51 1007.97 C 725.88 1004.98, 728.26 1003.24, 732.84 999.74 C 737.42 996.23, 740.40 994.30, 745.41 990.46 C 750.41 986.61, 753.23 984.52, 757.84 980.51 C 762.45 976.51, 764.89 974.47, 768.46 970.44 C 772.04 966.41, 773.82 964.50, 775.72 960.37 C 777.62 956.24, 778.17 953.88, 777.97 949.80 C 777.78 945.72, 776.93 943.28, 774.74 939.98 C 772.56 936.67, 770.47 935.40, 767.03 933.26 C 763.59 931.12, 761.31 930.62, 757.54 929.27 C 753.77 927.93, 751.85 927.64, 748.18 926.51 C 744.51 925.39, 742.57 924.65, 739.20 923.64 C 735.83 922.63, 733.96 921.38, 731.32 921.47 C 728.68 921.57, 727.52 922.92, 726.01 924.11 C 724.51 925.30, 724.31 925.76, 723.80 927.43 C 723.29 929.09, 723.18 930.71, 723.47 932.42" style="stroke: black; fill: black;"/><path d="M 815.35,964.20 C 813.45 964.89, 812.51 965.62, 811.43 967.70 C 810.35 969.78, 809.88 971.38, 809.94 974.60 C 809.99 977.82, 810.66 980.01, 811.70 983.80 C 812.75 987.59, 813.45 989.87, 815.16 993.55 C 816.86 997.24, 817.62 999.17, 820.21 1002.23 C 822.80 1005.29, 824.53 1006.83, 828.12 1008.84 C 831.71 1010.85, 833.96 1011.45, 838.16 1012.28 C 842.36 1013.11, 844.56 1013.25, 849.13 1012.99 C 853.71 1012.74, 856.19 1012.30, 861.04 1011.01 C 865.89 1009.72, 868.57 1008.75, 873.39 1006.55 C 878.22 1004.35, 880.67 1002.93, 885.16 1000.00 C 889.64 997.06, 891.91 995.26, 895.80 991.89 C 899.69 988.53, 901.53 986.63, 904.62 983.16 C 907.71 979.69, 909.30 977.91, 911.25 974.53 C 913.20 971.15, 914.49 969.27, 914.36 966.26 C 914.22 963.25, 912.91 961.23, 910.56 959.48 C 908.20 957.74, 905.44 956.58, 902.58 957.54 C 899.72 958.50, 898.68 960.42, 896.25 964.28 C 893.82 968.15, 892.96 971.03, 890.43 976.86 C 887.90 982.70, 886.63 986.37, 883.60 993.45 C 880.57 1000.53, 878.69 1004.58, 875.26 1012.27 C 871.83 1019.95, 870.01 1024.00, 866.46 1031.90 C 862.92 1039.79, 861.12 1044.15, 857.55 1051.75 C 853.99 1059.34, 852.20 1063.01, 848.64 1069.87 C 845.07 1076.72, 843.15 1080.21, 839.73 1086.00 C 836.31 1091.79, 834.68 1094.45, 831.55 1098.81 C 828.42 1103.16, 826.63 1104.93, 824.07 1107.78 C 821.52 1110.63, 819.79 1111.38, 818.77 1113.05 C 817.76 1114.71, 818.33 1115.47, 819.01 1116.12 C 819.70 1116.77, 820.99 1116.29, 822.20 1116.30 C 823.42 1116.31, 824.88 1116.73, 825.10 1116.18 C 825.32 1115.63, 825.22 1114.68, 823.30 1113.54 C 821.38 1112.41, 817.82 1110.59, 815.48 1110.50 C 813.15 1110.42, 811.88 1111.62, 811.63 1113.14 C 811.39 1114.66, 812.64 1116.41, 814.24 1118.11 C 815.84 1119.81, 817.24 1121.18, 819.64 1121.63 C 822.05 1122.09, 823.95 1122.10, 826.26 1120.38 C 828.56 1118.67, 828.95 1116.63, 831.17 1113.06 C 833.39 1109.48, 834.63 1107.35, 837.36 1102.50 C 840.09 1097.66, 841.62 1094.89, 844.81 1088.84 C 848.00 1082.78, 849.86 1079.23, 853.31 1072.24 C 856.77 1065.24, 858.52 1061.50, 862.06 1053.85 C 865.61 1046.20, 867.41 1041.84, 871.03 1033.97 C 874.65 1026.11, 876.49 1022.10, 880.15 1014.54 C 883.81 1006.97, 885.80 1002.92, 889.32 996.16 C 892.84 989.40, 894.48 985.83, 897.74 980.72 C 900.99 975.62, 903.30 973.69, 905.58 970.63 C 907.86 967.57, 909.00 966.97, 909.15 965.43 C 909.29 963.88, 907.48 963.18, 906.30 962.90 C 905.13 962.62, 904.26 962.74, 903.26 964.03 C 902.26 965.31, 902.49 966.68, 901.28 969.33 C 900.08 971.98, 899.50 974.06, 897.25 977.29 C 895.00 980.52, 893.39 982.36, 890.04 985.48 C 886.70 988.61, 884.57 990.30, 880.54 992.92 C 876.51 995.53, 874.22 996.75, 869.89 998.55 C 865.56 1000.35, 863.09 1001.07, 858.89 1001.92 C 854.70 1002.76, 852.59 1002.88, 848.94 1002.78 C 845.29 1002.68, 843.63 1002.23, 840.63 1001.42 C 837.63 1000.62, 836.16 1000.08, 833.96 998.74 C 831.75 997.41, 831.01 996.70, 829.62 994.75 C 828.23 992.80, 827.76 991.64, 827.01 988.98 C 826.26 986.31, 825.98 984.45, 825.88 981.43 C 825.78 978.40, 826.73 976.63, 826.52 973.86 C 826.30 971.09, 825.93 969.51, 824.81 967.59 C 823.70 965.66, 822.82 964.91, 820.93 964.24 C 819.04 963.56, 817.25 963.51, 815.35 964.20" style="stroke: black; fill: black;"/><path d="M 971.17,968.04 C 969.39 969.05, 969.12 970.55, 968.17 973.74 C 967.21 976.94, 967.46 979.19, 966.39 984.03 C 965.31 988.86, 964.76 992.06, 962.80 997.92 C 960.84 1003.78, 959.47 1007.16, 956.58 1013.33 C 953.70 1019.50, 951.77 1022.65, 948.39 1028.77 C 945.01 1034.88, 943.02 1038.20, 939.67 1043.91 C 936.33 1049.62, 934.71 1052.62, 931.68 1057.32 C 928.64 1062.01, 927.11 1064.21, 924.50 1067.38 C 921.88 1070.56, 919.77 1071.18, 918.60 1073.19 C 917.43 1075.21, 917.85 1076.48, 918.64 1077.46 C 919.43 1078.44, 921.19 1078.85, 922.55 1078.09 C 923.90 1077.33, 924.55 1076.57, 925.42 1073.67 C 926.29 1070.77, 925.77 1068.32, 926.90 1063.61 C 928.03 1058.90, 928.94 1055.78, 931.08 1050.12 C 933.22 1044.46, 934.63 1041.39, 937.60 1035.31 C 940.56 1029.24, 942.25 1025.99, 945.89 1019.74 C 949.52 1013.50, 951.55 1010.09, 955.77 1004.08 C 959.98 998.07, 962.30 995.07, 966.97 989.68 C 971.65 984.29, 974.11 981.65, 979.13 977.13 C 984.15 972.61, 986.95 970.41, 992.06 967.09 C 997.16 963.77, 999.89 962.47, 1004.65 960.52 C 1009.42 958.57, 1011.94 957.93, 1015.88 957.35 C 1019.83 956.78, 1021.73 957.06, 1024.37 957.63 C 1027.02 958.20, 1027.74 958.99, 1029.11 960.19 C 1030.48 961.39, 1030.69 961.91, 1031.23 963.64 C 1031.77 965.37, 1032.06 966.28, 1031.81 968.85 C 1031.56 971.42, 1031.46 973.20, 1029.98 976.50 C 1028.50 979.80, 1027.32 981.85, 1024.40 985.35 C 1021.49 988.85, 1019.48 990.78, 1015.41 994.00 C 1011.34 997.22, 1008.78 998.88, 1004.04 1001.45 C 999.31 1004.03, 996.41 1005.22, 991.74 1006.88 C 987.08 1008.53, 984.49 1008.86, 980.72 1009.73 C 976.96 1010.59, 975.26 1010.31, 972.91 1011.19 C 970.56 1012.08, 969.73 1012.77, 968.96 1014.16 C 968.19 1015.56, 968.00 1016.82, 969.06 1018.17 C 970.12 1019.52, 971.42 1020.75, 974.26 1020.92 C 977.10 1021.09, 979.14 1020.28, 983.24 1019.01 C 987.34 1017.74, 989.86 1016.70, 994.78 1014.57 C 999.70 1012.43, 1002.71 1011.17, 1007.82 1008.36 C 1012.93 1005.54, 1015.68 1003.88, 1020.33 1000.49 C 1024.98 997.09, 1027.32 995.23, 1031.06 991.38 C 1034.81 987.52, 1036.63 985.41, 1039.05 981.21 C 1041.46 977.01, 1042.47 974.69, 1043.14 970.37 C 1043.81 966.04, 1043.87 963.42, 1042.40 959.59 C 1040.93 955.77, 1039.12 953.57, 1035.79 951.25 C 1032.45 948.94, 1030.01 948.40, 1025.70 948.00 C 1021.39 947.61, 1019.03 948.08, 1014.24 949.29 C 1009.44 950.49, 1006.89 951.53, 1001.74 954.04 C 996.59 956.55, 993.81 958.08, 988.49 961.83 C 983.17 965.58, 980.31 967.96, 975.14 972.79 C 969.98 977.61, 967.47 980.36, 962.66 985.96 C 957.85 991.56, 955.47 994.63, 951.09 1000.78 C 946.72 1006.92, 944.64 1010.39, 940.78 1016.69 C 936.92 1022.99, 935.15 1026.24, 931.79 1032.29 C 928.43 1038.34, 926.88 1041.37, 923.98 1046.94 C 921.08 1052.50, 919.60 1055.37, 917.29 1060.10 C 914.97 1064.82, 913.11 1066.83, 912.40 1070.57 C 911.69 1074.31, 912.14 1076.40, 913.74 1078.78 C 915.34 1081.16, 917.74 1082.15, 920.41 1082.47 C 923.09 1082.78, 924.86 1082.41, 927.11 1080.35 C 929.36 1078.30, 929.54 1076.09, 931.68 1072.21 C 933.81 1068.32, 935.07 1065.95, 937.78 1060.92 C 940.49 1055.89, 942.00 1052.88, 945.21 1047.05 C 948.41 1041.23, 950.35 1037.95, 953.81 1031.79 C 957.26 1025.62, 959.26 1022.47, 962.49 1016.25 C 965.72 1010.02, 967.42 1006.60, 969.97 1000.67 C 972.53 994.73, 973.54 991.54, 975.27 986.56 C 976.99 981.59, 978.26 979.35, 978.62 975.78 C 978.98 972.21, 978.56 970.26, 977.07 968.71 C 975.58 967.16, 972.95 967.03, 971.17 968.04" style="stroke: black; fill: black;"/><path d="M 1082.76,991.99 C 1083.62 993.84, 1084.81 994.83, 1087.15 995.45 C 1089.48 996.08, 1091.04 995.85, 1094.45 995.11 C 1097.87 994.37, 1099.94 993.23, 1104.22 991.75 C 1108.49 990.26, 1111.10 989.38, 1115.85 987.67 C 1120.59 985.96, 1123.30 984.97, 1127.94 983.19 C 1132.58 981.41, 1134.98 980.45, 1139.05 978.77 C 1143.11 977.08, 1145.46 976.97, 1148.25 974.75 C 1151.04 972.52, 1152.17 970.81, 1152.99 967.64 C 1153.80 964.47, 1153.86 961.96, 1152.33 958.90 C 1150.79 955.85, 1149.05 953.72, 1145.33 952.36 C 1141.61 951.00, 1138.86 951.69, 1133.73 952.12 C 1128.60 952.56, 1125.71 952.95, 1119.68 954.54 C 1113.64 956.13, 1110.06 957.31, 1103.56 960.09 C 1097.05 962.87, 1093.35 964.87, 1087.16 968.44 C 1080.97 972.01, 1077.79 974.02, 1072.60 977.94 C 1067.41 981.85, 1064.78 983.86, 1061.22 988.02 C 1057.65 992.18, 1056.00 994.36, 1054.77 998.74 C 1053.54 1003.13, 1053.53 1005.89, 1055.06 1009.94 C 1056.58 1014.00, 1058.46 1016.04, 1062.40 1019.02 C 1066.33 1022.00, 1069.04 1022.99, 1074.74 1024.86 C 1080.45 1026.72, 1083.87 1027.42, 1090.93 1028.34 C 1097.99 1029.27, 1102.08 1029.47, 1110.03 1029.48 C 1117.97 1029.50, 1122.45 1029.17, 1130.64 1028.43 C 1138.82 1027.70, 1143.67 1027.04, 1150.95 1025.81 C 1158.23 1024.59, 1161.91 1023.75, 1167.04 1022.32 C 1172.17 1020.90, 1174.97 1020.33, 1176.61 1018.69 C 1178.25 1017.06, 1177.44 1014.62, 1175.23 1014.16 C 1173.02 1013.70, 1170.60 1015.24, 1165.54 1016.40 C 1160.48 1017.55, 1157.00 1018.64, 1149.92 1019.93 C 1142.84 1021.22, 1138.09 1022.12, 1130.13 1022.86 C 1122.17 1023.60, 1117.75 1023.86, 1110.12 1023.64 C 1102.49 1023.42, 1098.52 1022.99, 1091.98 1021.74 C 1085.45 1020.50, 1082.27 1019.39, 1077.46 1017.42 C 1072.64 1015.45, 1070.67 1014.06, 1067.90 1011.88 C 1065.14 1009.69, 1064.62 1008.69, 1063.65 1006.50 C 1062.67 1004.32, 1062.36 1003.69, 1063.03 1000.94 C 1063.70 998.19, 1064.26 996.29, 1067.00 992.75 C 1069.73 989.20, 1072.02 986.96, 1076.70 983.22 C 1081.38 979.48, 1084.49 977.41, 1090.38 974.06 C 1096.26 970.71, 1099.94 968.80, 1106.12 966.47 C 1112.31 964.14, 1115.81 963.23, 1121.31 962.42 C 1126.82 961.62, 1129.61 961.95, 1133.66 962.45 C 1137.70 962.95, 1139.28 964.47, 1141.52 964.92 C 1143.76 965.37, 1144.17 964.91, 1144.85 964.70 C 1145.52 964.50, 1145.59 963.83, 1144.91 963.89 C 1144.22 963.96, 1143.47 963.86, 1141.43 965.03 C 1139.38 966.20, 1138.06 967.84, 1134.69 969.74 C 1131.32 971.64, 1128.91 972.81, 1124.56 974.55 C 1120.21 976.28, 1117.54 977.19, 1112.94 978.42 C 1108.34 979.64, 1105.76 980.12, 1101.56 980.67 C 1097.36 981.22, 1095.05 980.71, 1091.93 981.15 C 1088.81 981.59, 1087.79 981.86, 1085.97 982.87 C 1084.15 983.88, 1083.49 984.39, 1082.85 986.21 C 1082.21 988.04, 1081.90 990.14, 1082.76 991.99" style="stroke: black; fill: black;"/><path d="M 1217.64,967.38 C 1215.48 967.43, 1213.95 968.16, 1212.06 970.45 C 1210.16 972.73, 1209.92 974.99, 1208.14 978.82 C 1206.37 982.64, 1205.33 985.37, 1203.20 989.59 C 1201.06 993.81, 1199.86 996.20, 1197.48 999.91 C 1195.10 1003.63, 1193.14 1005.28, 1191.29 1008.17 C 1189.44 1011.06, 1188.22 1012.19, 1188.22 1014.38 C 1188.21 1016.57, 1189.36 1018.08, 1191.26 1019.11 C 1193.17 1020.15, 1195.65 1020.92, 1197.73 1019.55 C 1199.81 1018.18, 1199.75 1015.96, 1201.65 1012.24 C 1203.55 1008.53, 1204.30 1005.72, 1207.23 1000.96 C 1210.17 996.21, 1212.17 993.37, 1216.34 988.46 C 1220.52 983.55, 1222.99 980.86, 1228.10 976.42 C 1233.22 971.97, 1236.20 969.77, 1241.92 966.24 C 1247.64 962.70, 1250.81 961.11, 1256.70 958.74 C 1262.60 956.38, 1265.61 955.53, 1271.41 954.41 C 1277.21 953.29, 1280.35 953.12, 1285.71 953.16 C 1291.06 953.19, 1293.58 953.63, 1298.20 954.57 C 1302.81 955.51, 1305.11 956.48, 1308.76 957.85 C 1312.41 959.22, 1313.71 960.65, 1316.46 961.40 C 1319.20 962.16, 1320.80 962.42, 1322.47 961.63 C 1324.14 960.84, 1325.15 959.38, 1324.80 957.46 C 1324.45 955.54, 1323.39 953.75, 1320.73 952.04 C 1318.06 950.33, 1315.76 949.97, 1311.49 948.92 C 1307.22 947.86, 1304.57 947.34, 1299.38 946.78 C 1294.20 946.23, 1291.43 945.88, 1285.57 946.14 C 1279.71 946.40, 1276.34 946.68, 1270.10 948.06 C 1263.86 949.43, 1260.65 950.43, 1254.38 953.03 C 1248.10 955.63, 1244.79 957.33, 1238.72 961.04 C 1232.65 964.75, 1229.54 967.05, 1224.02 971.58 C 1218.50 976.10, 1215.91 978.85, 1211.13 983.66 C 1206.35 988.48, 1204.04 991.20, 1200.11 995.65 C 1196.18 1000.09, 1194.12 1002.35, 1191.48 1005.89 C 1188.85 1009.44, 1187.13 1010.75, 1186.92 1013.38 C 1186.72 1016.01, 1188.58 1017.71, 1190.45 1019.03 C 1192.32 1020.34, 1194.16 1020.85, 1196.29 1019.95 C 1198.41 1019.06, 1199.10 1017.52, 1201.07 1014.55 C 1203.04 1011.59, 1203.88 1009.12, 1206.14 1005.13 C 1208.39 1001.14, 1209.90 998.77, 1212.36 994.60 C 1214.81 990.44, 1216.23 987.91, 1218.43 984.31 C 1220.62 980.70, 1222.46 979.41, 1223.34 976.59 C 1224.22 973.76, 1223.98 972.01, 1222.84 970.17 C 1221.70 968.33, 1219.79 967.32, 1217.64 967.38" style="stroke: black; fill: black;"/></svg>