<?xml version="1.0" encoding="utf-8"?>

<!DOCTYPE svg PUBLIC "-//W3C//DTD SVG 1.1//EN" "http://www.w3.org/Graphics/SVG/1.1/DTD/svg11.dtd">
<!-- Uploaded to: SVG Repo, www.svgrepo.com, Generator: SVG Repo Mixer Tools -->
<svg height="800px" width="800px" version="1.1" id="_x32_" xmlns="http://www.w3.org/2000/svg" xmlns:xlink="http://www.w3.org/1999/xlink" 
	 viewBox="0 0 512 512"  xml:space="preserve">
<style type="text/css">
	.st0{fill:#000000;}
</style>
<g>
	<path class="st0" d="M81.836,113.484c35.43,0,42.524-27.531,42.524-42.546V56.414c0-15.016-7.094-42.539-42.524-42.539
		c-35.422,0-42.515,27.523-42.515,42.539v14.523C39.321,85.953,46.414,113.484,81.836,113.484z"/>
	<path class="st0" d="M248,184l-59.414,29.117L156,160c-9.554-15.578-21.906-27.734-39.438-27.734H89.836H51.79
		c-28.602,0-51.79,24.57-51.79,54.875v157.797h35.016V512h33.882l20.938-152.203L110.782,512h33.882V270.625v-39.75L173.336,264
		L264,208L248,184z"/>
	<path class="st0" d="M512,48V24h-16H360V0h-32v24H192h-16v24h16v140.078l2.618,4.266L208,185.789V48h272v240H208v-26.602l-16,9.883
		V288h-16v24h16h144.25v63.078l-54.844,104.71c-7.977,0.805-14.218,7.462-14.218,15.649c0,8.734,7.078,15.813,15.812,15.813
		c8.734,0,15.813-7.078,15.813-15.813c0-3.352-1.054-6.446-2.836-9l40.274-76.883V488h16v-76.531l39.492,75.39
		c-1.602,2.477-2.554,5.414-2.554,8.578c0,8.734,7.078,15.813,15.812,15.813c8.734,0,15.813-7.078,15.813-15.813
		c0-8.367-6.516-15.149-14.742-15.703l-53.82-102.742V312H496h16v-24h-16V48H512z"/>
	<path class="st0" d="M368.493,82.617v64.899l61.14-21.586C420.734,100.726,396.758,82.617,368.493,82.617z"/>
	<path class="st0" d="M278.649,185.782c0,35.843,29.047,64.89,64.89,64.89c35.836,0,64.89-29.047,64.89-64.89
		c0-7.578-1.367-14.821-3.742-21.57l-61.149,21.57v-64.883C307.696,120.898,278.649,149.953,278.649,185.782z"/>
</g>
</svg>