<?xml version="1.0" encoding="utf-8"?>
<!-- Uploaded to: SVG Repo, www.svgrepo.com, Generator: SVG Repo Mixer Tools -->
<svg fill="#000000" version="1.1" id="Layer_1" xmlns="http://www.w3.org/2000/svg" xmlns:xlink="http://www.w3.org/1999/xlink" 
	 width="800px" height="800px" viewBox="0 0 256 241" enable-background="new 0 0 256 241" xml:space="preserve">
<path d="M254,188V2H2v186h111v29H75v22h106v-22h-38v-29H254z M19,19h217v151H19L19,19z M172.651,115.573h-5.158v8.597
	c0,9.529-7.702,17.193-17.193,17.193h-8.599v8.597H93.563l0.028-34.019c-8.453-8.02-13.731-19.378-13.731-31.977
	c0-19.297,12.371-35.727,29.587-41.667v28.122c-7.652,3.226-13.038,10.803-13.038,19.616c0,11.25,8.778,20.482,19.843,21.223
	c2.341,8.571,10.193,14.892,19.496,14.892h9.379c0.87,2.3,3.086,3.939,5.69,3.939c3.362,0,6.088-2.726,6.088-6.088
	s-2.726-6.088-6.088-6.088c-2.604,0-4.821,1.639-5.69,3.939h-9.379c-6.97,0-12.904-4.506-15.051-10.757
	c10.31-1.467,18.265-10.35,18.265-21.06c0-9.03-5.657-16.759-13.611-19.842V39.959c11.348,0.44,21.606,5.258,29.146,12.759
	c7.915,7.874,12.877,18.578,12.998,30.617v6.447l8.404,21.125C176.799,113.171,175.082,115.573,172.651,115.573z M160.16,89.766
	c0-2.622-2.113-4.743-4.724-4.743c-2.611,0-4.724,2.122-4.724,4.743s2.113,4.743,4.724,4.743
	C158.047,94.509,160.161,92.388,160.16,89.766z M117.684,100.564c5.807,0,10.531-4.724,10.531-10.531
	c0-5.807-4.724-10.531-10.531-10.531s-10.531,4.724-10.531,10.531C107.153,95.84,111.878,100.564,117.684,100.564z"/>
</svg>