<svg xmlns="http://www.w3.org/2000/svg" xmlns:xlink="http://www.w3.org/1999/xlink" viewBox="0 0 111 101" fill="#fff" fill-rule="evenodd" stroke="#000" stroke-linecap="round" stroke-linejoin="round"><use xlink:href="#A" x=".5" y=".5"/><symbol id="A" overflow="visible"><g fill-rule="nonzero" stroke="none"><path d="M107.574 56.851c3.236-2.841 3.236-7.415 0-10.256L60.855 5.576c-3.236-2.841-8.446-2.841-11.681 0L2.455 46.595c-3.236 2.841-3.236 7.415 0 10.256l46.719 41.019c3.236 2.841 8.445 2.841 11.681 0z" fill="#000" opacity=".2"/><path d="M107.546 53.413c3.236-2.841 3.236-7.415 0-10.256L60.827 2.138c-3.236-2.841-8.446-2.841-11.681 0L2.427 43.157c-3.236 2.841-3.236 7.415 0 10.256l46.719 41.019c3.236 2.841 8.445 2.841 11.681 0z" fill="#66b744"/></g><path d="M55.001 13.794c-6.868 0-12.735.721-17.69 2.189L21.647 29.736c-.88 3.224-1.278 6.754-.951 9.052 1.701 11.951 15.976 19.835 34.305 19.835 13.092 0 19.629 5.909 19.891 7.752.131.922.245 4.931-2.171 6.385s-8.949 3.105-17.72 3.105c-10.754 0-23.596-5.988-23.596-5.988-4.063-2.121-8.973-.568-10.947 2.795L36.56 86.81c5.254 1.534 11.615 2.849 18.441 2.849 6.868 0 12.735-.721 17.69-2.189l15.665-13.753c.88-3.224 1.278-6.754.951-9.052C87.605 52.715 73.33 44.83 55.001 44.83c-13.092 0-19.238-5.909-19.5-7.752-.131-.922-.245-4.931 2.171-6.385s8.557-3.105 17.329-3.105c10.754 0 23.596 5.988 23.596 5.988 4.063 2.121 8.973.569 10.947-2.795L73.443 16.643c-5.254-1.534-11.615-2.849-18.441-2.849z" fill="#000" opacity=".2" stroke="none"/><path d="M55.001 10.345c-6.868 0-12.735.721-17.69 2.189L21.647 26.287c-.88 3.224-1.278 6.754-.951 9.052 1.701 11.951 15.976 19.835 34.305 19.835 13.092 0 19.629 5.909 19.891 7.752.131.922.245 4.931-2.171 6.385s-8.949 3.105-17.72 3.105c-10.754 0-23.596-5.988-23.596-5.988-4.063-2.121-8.973-.568-10.947 2.795L36.56 83.361c5.254 1.534 11.615 2.849 18.441 2.849 6.868 0 12.735-.721 17.69-2.189l15.665-13.753c.88-3.224 1.278-6.754.951-9.052-1.701-11.951-15.976-19.835-34.305-19.835-13.092 0-19.238-5.909-19.5-7.752-.131-.921-.245-4.93 2.171-6.385s8.557-3.105 17.329-3.105c10.754 0 23.596 5.988 23.596 5.988 4.063 2.121 8.973.569 10.947-2.795L73.443 13.194c-5.254-1.534-11.615-2.849-18.441-2.849z" stroke="none"/><path d="M55.002 0c-2.111 0-4.22.708-5.838 2.128L2.439 43.153C.314 45.018-.383 47.623.284 50.002c.348-1.243 1.046-2.427 2.156-3.401L49.164 5.577c3.235-2.841 8.44-2.841 11.675 0l46.725 41.024c1.11.975 1.807 2.158 2.156 3.401.667-2.379-.03-4.984-2.156-6.85L60.839 2.128C59.222.708 57.113 0 55.002 0z" fill-rule="nonzero" opacity=".2" stroke="none"/></symbol></svg>