<svg xmlns="http://www.w3.org/2000/svg" id="canvas" viewBox="301.165 857.074 1303.073 253.946"><path d="M 309.74,861.12 C 309.15 862.51, 309.22 864.02, 309.11 868.09 C 308.99 872.15, 309.26 874.81, 309.17 881.45 C 309.08 888.09, 308.96 892.47, 308.66 901.29 C 308.35 910.11, 308.11 915.37, 307.65 925.55 C 307.19 935.72, 306.87 941.60, 306.35 952.17 C 305.84 962.73, 305.50 968.47, 305.08 978.35 C 304.66 988.23, 304.43 993.31, 304.27 1001.55 C 304.12 1009.79, 304.13 1013.80, 304.30 1019.56 C 304.48 1025.32, 304.63 1027.23, 305.14 1030.35 C 305.65 1033.46, 306.25 1034.23, 306.85 1035.14 C 307.45 1036.05, 307.91 1035.93, 308.16 1034.90 C 308.41 1033.87, 308.36 1033.07, 308.10 1029.98 C 307.83 1026.89, 307.21 1025.13, 306.85 1019.44 C 306.48 1013.76, 306.29 1009.77, 306.29 1001.57 C 306.29 993.36, 306.50 988.28, 306.87 978.42 C 307.23 968.56, 307.57 962.81, 308.11 952.25 C 308.65 941.70, 308.99 935.82, 309.56 925.64 C 310.13 915.47, 310.46 910.22, 310.97 901.40 C 311.49 892.58, 311.78 888.20, 312.13 881.54 C 312.47 874.89, 312.70 872.22, 312.68 868.13 C 312.67 864.05, 312.64 862.52, 312.05 861.12 C 311.46 859.72, 310.33 859.73, 309.74 861.12" style="stroke: black; fill: black;"/><path d="M 365.40,889.13 C 364.48 889.34, 363.83 889.55, 362.63 891.20 C 361.44 892.85, 361.09 894.09, 359.44 897.39 C 357.78 900.70, 356.86 902.98, 354.33 907.73 C 351.80 912.47, 350.03 915.59, 346.78 921.12 C 343.53 926.64, 341.52 929.78, 338.08 935.34 C 334.63 940.90, 332.59 943.79, 329.57 948.90 C 326.54 954.02, 324.88 956.41, 322.96 960.92 C 321.04 965.43, 320.16 967.53, 319.95 971.45 C 319.75 975.36, 320.06 977.28, 321.93 980.49 C 323.81 983.71, 325.52 985.01, 329.31 987.50 C 333.10 989.99, 335.71 991.05, 340.90 992.94 C 346.09 994.83, 349.27 995.63, 355.25 996.95 C 361.23 998.26, 364.69 998.71, 370.81 999.52 C 376.93 1000.33, 380.23 1000.57, 385.86 1000.99 C 391.50 1001.41, 394.25 1001.49, 398.99 1001.61 C 403.73 1001.73, 406.00 1001.75, 409.55 1001.59 C 413.10 1001.44, 414.55 1001.25, 416.75 1000.81 C 418.95 1000.37, 419.48 1000.03, 420.53 999.40 C 421.59 998.76, 421.78 998.37, 422.03 997.64 C 422.28 996.91, 421.84 996.38, 421.79 995.74 C 421.73 995.10, 421.74 994.89, 421.75 994.43 C 421.76 993.96, 422.02 994.02, 421.84 993.43 C 421.65 992.84, 421.34 992.62, 420.84 991.46 C 420.34 990.30, 420.04 989.63, 419.33 987.62 C 418.61 985.61, 417.99 984.39, 417.26 981.42 C 416.53 978.44, 416.05 976.58, 415.66 972.75 C 415.28 968.93, 415.12 966.56, 415.33 962.28 C 415.54 958.00, 415.82 955.59, 416.72 951.36 C 417.62 947.12, 418.23 944.87, 419.83 941.09 C 421.43 937.31, 422.33 935.46, 424.72 932.47 C 427.11 929.48, 428.58 928.29, 431.78 926.14 C 434.98 924.00, 436.89 923.11, 440.71 921.75 C 444.53 920.40, 446.83 919.91, 450.88 919.37 C 454.93 918.82, 457.19 919.08, 460.95 919.04 C 464.71 919.00, 467.88 919.66, 469.68 919.15 C 471.48 918.65, 471.67 917.36, 469.94 916.51 C 468.22 915.65, 464.99 915.13, 461.07 914.88 C 457.14 914.62, 454.66 914.62, 450.31 915.23 C 445.97 915.85, 443.49 916.43, 439.34 917.95 C 435.19 919.47, 433.09 920.43, 429.54 922.84 C 426.00 925.25, 424.30 926.65, 421.63 930.00 C 418.96 933.34, 417.97 935.45, 416.21 939.55 C 414.44 943.64, 413.84 946.00, 412.81 950.49 C 411.78 954.98, 411.47 957.47, 411.05 961.98 C 410.64 966.48, 410.70 968.91, 410.73 973.01 C 410.76 977.12, 410.81 979.14, 411.21 982.49 C 411.60 985.85, 411.99 987.37, 412.70 989.77 C 413.41 992.17, 413.94 992.95, 414.76 994.47 C 415.59 995.99, 415.95 996.63, 416.84 997.38 C 417.72 998.14, 418.45 998.23, 419.17 998.25 C 419.90 998.27, 420.17 997.86, 420.48 997.50 C 420.80 997.13, 420.94 996.68, 420.74 996.41 C 420.55 996.14, 420.47 996.16, 419.53 996.15 C 418.59 996.13, 418.10 996.09, 416.04 996.33 C 413.98 996.56, 412.64 996.95, 409.23 997.31 C 405.82 997.68, 403.62 998.03, 398.99 998.15 C 394.36 998.27, 391.62 998.24, 386.07 997.92 C 380.51 997.60, 377.23 997.37, 371.21 996.56 C 365.18 995.75, 361.77 995.25, 355.95 993.87 C 350.14 992.49, 347.04 991.57, 342.14 989.66 C 337.23 987.74, 334.80 986.52, 331.43 984.28 C 328.07 982.05, 326.87 981.01, 325.31 978.48 C 323.75 975.94, 323.51 974.88, 323.64 971.62 C 323.77 968.36, 324.29 966.42, 325.98 962.17 C 327.68 957.92, 329.20 955.44, 332.11 950.38 C 335.02 945.32, 337.05 942.39, 340.53 936.87 C 344.00 931.35, 346.05 928.20, 349.49 922.77 C 352.93 917.34, 354.81 914.29, 357.73 909.71 C 360.65 905.13, 362.22 903.14, 364.08 899.88 C 365.93 896.62, 366.39 895.37, 367.02 893.43 C 367.66 891.48, 367.56 891.02, 367.24 890.16 C 366.91 889.30, 366.32 888.92, 365.40 889.13" style="stroke: black; fill: black;"/><path d="M 479.20,925.29 C 479.92 925.86, 480.48 925.89, 482.19 926.01 C 483.89 926.13, 485.04 926.12, 487.70 925.90 C 490.37 925.68, 492.11 924.99, 495.51 924.90 C 498.91 924.81, 501.16 924.85, 504.72 925.44 C 508.28 926.04, 510.27 926.63, 513.31 927.86 C 516.34 929.10, 517.84 929.93, 519.90 931.62 C 521.96 933.30, 522.68 934.16, 523.60 936.29 C 524.52 938.41, 524.79 939.40, 524.50 942.24 C 524.21 945.07, 523.76 946.86, 522.16 950.47 C 520.55 954.07, 519.23 956.29, 516.47 960.26 C 513.71 964.23, 511.76 966.44, 508.35 970.32 C 504.95 974.19, 502.76 976.28, 499.46 979.65 C 496.16 983.01, 494.18 984.40, 491.86 987.13 C 489.54 989.86, 488.45 991.03, 487.87 993.32 C 487.29 995.61, 487.55 996.94, 488.98 998.59 C 490.41 1000.24, 491.83 1001.07, 495.04 1001.56 C 498.25 1002.06, 500.54 1001.48, 505.03 1001.06 C 509.51 1000.64, 512.30 1000.24, 517.46 999.46 C 522.61 998.69, 525.73 998.10, 530.81 997.19 C 535.89 996.28, 538.57 995.95, 542.87 994.91 C 547.16 993.87, 550.53 993.07, 552.29 992.00 C 554.05 990.93, 553.71 989.69, 551.68 989.58 C 549.65 989.47, 546.43 990.66, 542.13 991.45 C 537.83 992.25, 535.23 992.74, 530.19 993.56 C 525.16 994.37, 522.04 994.97, 516.95 995.52 C 511.86 996.07, 509.04 996.22, 504.75 996.30 C 500.47 996.39, 498.28 995.98, 495.53 995.96 C 492.78 995.93, 491.84 996.43, 490.98 996.17 C 490.13 995.92, 490.40 995.92, 491.26 994.70 C 492.12 993.48, 493.08 992.57, 495.28 990.09 C 497.48 987.60, 499.08 985.75, 502.25 982.28 C 505.41 978.81, 507.63 976.69, 511.11 972.74 C 514.59 968.79, 516.64 966.61, 519.64 962.52 C 522.63 958.44, 524.17 956.26, 526.10 952.31 C 528.03 948.37, 528.87 946.37, 529.30 942.77 C 529.73 939.18, 529.50 937.33, 528.27 934.33 C 527.03 931.32, 525.75 929.94, 523.13 927.74 C 520.52 925.53, 518.68 924.76, 515.19 923.30 C 511.70 921.84, 509.59 921.30, 505.69 920.45 C 501.79 919.59, 499.46 919.37, 495.71 919.03 C 491.96 918.70, 489.89 918.39, 486.96 918.76 C 484.02 919.12, 482.71 919.98, 481.03 920.85 C 479.36 921.73, 478.95 922.25, 478.58 923.14 C 478.21 924.03, 478.47 924.71, 479.20 925.29" style="stroke: black; fill: black;"/><path d="M 559.20,964.91 C 558.76 965.85, 558.78 966.78, 559.24 968.57 C 559.69 970.36, 560.06 971.62, 561.49 973.87 C 562.92 976.11, 563.93 977.67, 566.38 979.78 C 568.83 981.90, 570.55 983.07, 573.75 984.44 C 576.96 985.81, 578.81 986.35, 582.39 986.63 C 585.97 986.91, 587.95 986.72, 591.67 985.85 C 595.39 984.98, 597.39 984.19, 600.98 982.28 C 604.58 980.37, 606.45 978.97, 609.65 976.28 C 612.85 973.59, 614.44 971.85, 616.99 968.82 C 619.54 965.78, 620.72 964.05, 622.42 961.10 C 624.12 958.15, 624.87 956.51, 625.48 954.06 C 626.10 951.62, 625.99 950.29, 625.49 948.86 C 624.99 947.43, 624.10 946.86, 622.97 946.93 C 621.85 946.99, 620.73 947.30, 619.86 949.18 C 618.98 951.07, 618.86 952.54, 618.60 956.35 C 618.34 960.15, 618.62 962.62, 618.54 968.20 C 618.46 973.77, 618.42 977.15, 618.19 984.21 C 617.97 991.26, 617.81 995.52, 617.42 1003.47 C 617.03 1011.42, 616.87 1015.98, 616.24 1023.97 C 615.61 1031.96, 615.22 1036.12, 614.25 1043.44 C 613.28 1050.76, 612.76 1054.49, 611.38 1060.58 C 610.00 1066.66, 609.20 1069.53, 607.36 1073.85 C 605.52 1078.17, 604.43 1079.78, 602.17 1082.17 C 599.91 1084.56, 598.74 1085.12, 596.06 1085.80 C 593.38 1086.48, 591.90 1086.39, 588.78 1085.57 C 585.66 1084.74, 583.83 1083.89, 580.45 1081.68 C 577.06 1079.47, 574.91 1077.90, 571.85 1074.53 C 568.79 1071.17, 567.28 1068.62, 565.14 1064.85 C 562.99 1061.07, 562.50 1058.73, 561.12 1055.65 C 559.75 1052.58, 559.23 1050.58, 558.25 1049.46 C 557.27 1048.34, 556.41 1048.53, 556.21 1050.06 C 556.02 1051.59, 556.22 1053.74, 557.29 1057.11 C 558.35 1060.48, 559.23 1062.87, 561.55 1066.90 C 563.87 1070.93, 565.56 1073.58, 568.87 1077.24 C 572.19 1080.89, 574.37 1082.67, 578.14 1085.18 C 581.91 1087.69, 583.91 1088.87, 587.72 1089.79 C 591.53 1090.71, 593.76 1090.83, 597.19 1089.79 C 600.61 1088.75, 602.24 1087.56, 604.84 1084.60 C 607.44 1081.64, 608.36 1079.68, 610.17 1074.98 C 611.98 1070.29, 612.62 1067.37, 613.89 1061.12 C 615.17 1054.87, 615.63 1051.13, 616.55 1043.73 C 617.48 1036.34, 617.85 1032.18, 618.51 1024.15 C 619.16 1016.13, 619.34 1011.57, 619.84 1003.61 C 620.35 995.65, 620.54 991.39, 621.03 984.35 C 621.51 977.31, 621.67 973.91, 622.27 968.43 C 622.87 962.94, 623.49 960.57, 624.03 956.94 C 624.58 953.31, 625.09 952.12, 625.01 950.28 C 624.93 948.45, 624.26 948.10, 623.64 947.76 C 623.02 947.43, 622.57 947.67, 621.89 948.60 C 621.22 949.52, 621.07 950.40, 620.26 952.40 C 619.46 954.41, 619.24 955.93, 617.87 958.63 C 616.50 961.33, 615.62 963.05, 613.39 965.89 C 611.17 968.73, 609.66 970.38, 606.75 972.84 C 603.84 975.30, 602.07 976.54, 598.85 978.20 C 595.62 979.86, 593.81 980.47, 590.63 981.12 C 587.44 981.77, 585.79 981.82, 582.92 981.45 C 580.05 981.07, 578.65 980.55, 576.26 979.23 C 573.88 977.91, 572.82 976.72, 571.02 974.84 C 569.21 972.96, 568.64 971.62, 567.25 969.84 C 565.86 968.05, 565.24 967.13, 564.07 965.93 C 562.91 964.74, 562.40 964.07, 561.42 963.87 C 560.45 963.67, 559.64 963.98, 559.20 964.91" style="stroke: black; fill: black;"/><path d="M 699.87,939.44 C 699.50 938.42, 698.80 937.52, 696.96 936.53 C 695.12 935.54, 693.76 934.72, 690.67 934.49 C 687.59 934.27, 685.37 934.54, 681.51 935.40 C 677.66 936.26, 675.35 937.10, 671.40 938.78 C 667.45 940.47, 665.17 941.55, 661.77 943.82 C 658.36 946.09, 656.48 947.38, 654.40 950.13 C 652.31 952.88, 651.48 954.57, 651.35 957.57 C 651.22 960.57, 651.76 962.43, 653.75 965.14 C 655.73 967.85, 657.80 968.94, 661.28 971.11 C 664.76 973.27, 667.04 974.09, 671.15 975.96 C 675.25 977.83, 677.85 978.68, 681.81 980.46 C 685.77 982.23, 688.06 983.24, 690.97 984.82 C 693.88 986.40, 694.97 987.14, 696.35 988.35 C 697.73 989.57, 698.13 989.91, 697.85 990.90 C 697.58 991.90, 696.90 992.06, 694.99 993.32 C 693.09 994.57, 691.61 995.65, 688.32 997.19 C 685.02 998.72, 682.63 999.74, 678.53 1001.01 C 674.42 1002.27, 671.90 1002.91, 667.79 1003.50 C 663.68 1004.08, 661.29 1004.10, 657.95 1003.93 C 654.62 1003.75, 653.24 1003.07, 651.11 1002.63 C 648.97 1002.19, 648.39 1002.10, 647.27 1001.74 C 646.14 1001.37, 646.07 1000.82, 645.48 1000.81 C 644.90 1000.81, 644.35 1000.99, 644.34 1001.71 C 644.32 1002.44, 644.33 1003.29, 645.41 1004.44 C 646.50 1005.59, 647.28 1006.62, 649.76 1007.47 C 652.23 1008.31, 654.06 1008.60, 657.79 1008.67 C 661.52 1008.74, 664.02 1008.47, 668.42 1007.82 C 672.82 1007.17, 675.39 1006.59, 679.79 1005.42 C 684.19 1004.25, 686.69 1003.54, 690.43 1001.97 C 694.17 1000.41, 696.29 999.71, 698.50 997.60 C 700.70 995.49, 701.24 993.86, 701.47 991.43 C 701.70 988.99, 701.27 987.58, 699.63 985.42 C 697.99 983.26, 696.48 982.43, 693.27 980.64 C 690.05 978.85, 687.61 978.21, 683.56 976.47 C 679.51 974.73, 676.96 973.82, 673.02 971.94 C 669.08 970.06, 666.92 969.04, 663.86 967.05 C 660.81 965.05, 659.39 963.81, 657.76 961.96 C 656.13 960.11, 655.61 959.53, 655.71 957.79 C 655.82 956.05, 656.55 955.26, 658.29 953.26 C 660.03 951.25, 661.42 949.77, 664.40 947.77 C 667.39 945.77, 669.61 944.64, 673.22 943.26 C 676.83 941.87, 679.06 941.24, 682.46 940.83 C 685.87 940.42, 687.64 941.06, 690.24 941.21 C 692.83 941.35, 693.71 941.47, 695.43 941.56 C 697.14 941.65, 697.92 942.09, 698.81 941.66 C 699.70 941.24, 700.24 940.47, 699.87 939.44" style="stroke: black; fill: black;"/><path d="M 723.28,936.03 C 723.75 936.66, 724.00 936.75, 725.29 937.15 C 726.58 937.55, 727.37 937.84, 729.73 938.03 C 732.08 938.21, 733.70 937.86, 737.05 938.09 C 740.40 938.32, 742.66 938.45, 746.49 939.17 C 750.32 939.89, 752.59 940.42, 756.20 941.68 C 759.81 942.94, 761.73 943.70, 764.54 945.47 C 767.36 947.23, 768.59 948.31, 770.28 950.51 C 771.98 952.72, 772.50 953.89, 773.01 956.48 C 773.53 959.08, 773.56 960.45, 772.85 963.48 C 772.13 966.51, 771.36 968.31, 769.45 971.63 C 767.54 974.96, 765.95 976.86, 763.30 980.10 C 760.66 983.33, 758.86 984.98, 756.23 987.80 C 753.60 990.63, 751.75 991.71, 750.16 994.20 C 748.56 996.70, 748.03 998.10, 748.25 1000.26 C 748.48 1002.42, 749.21 1003.64, 751.29 1005.01 C 753.37 1006.38, 755.16 1006.76, 758.65 1007.11 C 762.13 1007.45, 764.34 1007.00, 768.73 1006.74 C 773.11 1006.49, 775.88 1006.22, 780.57 1005.82 C 785.25 1005.42, 787.88 1005.18, 792.16 1004.75 C 796.43 1004.31, 798.56 1004.14, 801.94 1003.65 C 805.32 1003.17, 806.84 1002.96, 809.05 1002.32 C 811.27 1001.69, 811.95 1001.30, 813.03 1000.48 C 814.12 999.67, 814.28 998.96, 814.49 998.24 C 814.69 997.51, 814.34 997.10, 814.05 996.86 C 813.75 996.62, 813.24 996.98, 813.00 997.04 C 812.76 997.10, 813.11 997.13, 812.82 997.15 C 812.54 997.17, 812.55 997.06, 811.57 997.15 C 810.60 997.23, 810.04 997.21, 807.96 997.56 C 805.88 997.92, 804.43 998.33, 801.17 998.92 C 797.91 999.52, 795.86 1000.01, 791.68 1000.54 C 787.50 1001.07, 784.88 1001.31, 780.26 1001.57 C 775.65 1001.84, 772.83 1001.92, 768.60 1001.89 C 764.37 1001.86, 762.21 1001.61, 759.10 1001.42 C 755.99 1001.24, 754.61 1001.20, 753.06 1000.98 C 751.52 1000.75, 751.11 1001.02, 751.38 1000.31 C 751.65 999.59, 752.73 999.27, 754.41 997.40 C 756.09 995.53, 757.29 993.86, 759.76 990.96 C 762.24 988.06, 764.04 986.30, 766.76 982.89 C 769.49 979.48, 771.23 977.57, 773.37 973.91 C 775.52 970.25, 776.58 968.26, 777.47 964.59 C 778.35 960.91, 778.48 958.93, 777.80 955.53 C 777.12 952.13, 776.24 950.38, 774.07 947.59 C 771.91 944.79, 770.25 943.61, 766.99 941.56 C 763.73 939.52, 761.65 938.80, 757.77 937.34 C 753.90 935.89, 751.59 935.34, 747.60 934.28 C 743.62 933.21, 741.38 932.69, 737.85 932.01 C 734.32 931.33, 732.53 930.85, 729.94 930.89 C 727.35 930.93, 726.29 931.58, 724.89 932.20 C 723.49 932.82, 723.26 933.22, 722.94 933.98 C 722.62 934.75, 722.81 935.40, 723.28 936.03" style="stroke: black; fill: black;"/><path d="M 781.97,958.59 C 782.83 959.21, 783.59 959.69, 785.96 959.54 C 788.33 959.39, 790.00 958.79, 793.81 957.84 C 797.62 956.90, 800.21 956.10, 805.02 954.83 C 809.83 953.56, 812.98 952.78, 817.85 951.50 C 822.73 950.21, 825.69 949.59, 829.40 948.41 C 833.11 947.23, 835.11 946.54, 836.40 945.58 C 837.69 944.61, 837.44 943.75, 835.85 943.57 C 834.25 943.40, 832.22 943.91, 828.42 944.71 C 824.63 945.51, 821.75 946.39, 816.87 947.57 C 811.98 948.74, 808.85 949.55, 804.01 950.58 C 799.17 951.61, 796.47 951.94, 792.66 952.71 C 788.85 953.47, 787.16 953.67, 784.96 954.41 C 782.76 955.16, 782.25 955.59, 781.65 956.43 C 781.05 957.26, 781.10 957.96, 781.97 958.59" style="stroke: black; fill: black;"/><path d="M 856.16,883.57 C 855.49 884.33, 855.02 884.96, 854.95 887.28 C 854.87 889.60, 855.26 891.05, 855.78 895.18 C 856.29 899.31, 856.86 902.07, 857.52 907.92 C 858.17 913.77, 858.49 917.50, 859.04 924.41 C 859.59 931.32, 859.78 935.45, 860.28 942.48 C 860.78 949.50, 860.97 953.17, 861.54 959.52 C 862.10 965.88, 862.54 969.13, 863.11 974.24 C 863.67 979.35, 863.87 981.70, 864.35 985.09 C 864.83 988.49, 865.03 989.54, 865.52 991.21 C 866.00 992.89, 866.48 993.00, 866.77 993.48 C 867.07 993.95, 866.89 993.47, 866.99 993.60 C 867.08 993.72, 866.95 994.08, 867.25 994.09 C 867.55 994.10, 868.08 994.33, 868.49 993.65 C 868.90 992.97, 869.32 992.51, 869.30 990.67 C 869.28 988.83, 869.01 987.81, 868.39 984.44 C 867.78 981.07, 867.06 978.85, 866.23 973.81 C 865.40 968.78, 864.91 965.56, 864.25 959.26 C 863.60 952.96, 863.40 949.30, 862.94 942.29 C 862.47 935.28, 862.32 931.15, 861.95 924.22 C 861.58 917.28, 861.37 913.53, 861.09 907.63 C 860.80 901.74, 860.74 898.90, 860.51 894.75 C 860.27 890.60, 860.34 889.15, 859.90 886.89 C 859.46 884.63, 859.06 884.12, 858.31 883.45 C 857.56 882.79, 856.83 882.80, 856.16 883.57" style="stroke: black; fill: black;"/><path d="M 841.60,960.96 C 842.62 961.41, 843.51 961.59, 846.04 961.09 C 848.57 960.59, 850.20 959.67, 854.27 958.44 C 858.33 957.21, 861.11 956.28, 866.38 954.93 C 871.66 953.58, 875.05 952.79, 880.65 951.69 C 886.26 950.59, 889.53 949.99, 894.41 949.43 C 899.28 948.86, 901.68 949.08, 905.03 948.87 C 908.38 948.67, 909.53 948.69, 911.15 948.40 C 912.76 948.10, 913.07 947.73, 913.11 947.40 C 913.15 947.07, 912.54 946.58, 911.35 946.76 C 910.15 946.93, 908.84 947.01, 907.13 948.27 C 905.41 949.54, 904.27 950.69, 902.78 953.09 C 901.30 955.50, 900.51 957.14, 899.70 960.30 C 898.89 963.46, 898.43 965.44, 898.73 968.89 C 899.03 972.33, 899.50 974.40, 901.19 977.51 C 902.88 980.62, 904.22 982.32, 907.18 984.43 C 910.13 986.54, 912.16 987.34, 915.95 988.07 C 919.74 988.80, 922.11 988.83, 926.14 988.06 C 930.17 987.29, 932.42 986.36, 936.10 984.21 C 939.78 982.06, 941.72 980.46, 944.55 977.30 C 947.38 974.13, 948.74 972.14, 950.26 968.39 C 951.78 964.64, 952.29 962.38, 952.15 958.56 C 952.01 954.74, 951.49 952.46, 949.54 949.29 C 947.58 946.11, 945.76 944.53, 942.38 942.68 C 938.99 940.83, 936.58 940.45, 932.61 940.03 C 928.64 939.61, 926.26 939.90, 922.52 940.59 C 918.78 941.29, 916.52 942.10, 913.90 943.50 C 911.28 944.89, 910.62 946.19, 909.42 947.56 C 908.22 948.94, 908.02 949.59, 907.92 950.38 C 907.81 951.17, 908.16 951.45, 908.90 951.52 C 909.64 951.58, 910.11 951.23, 911.62 950.70 C 913.14 950.17, 914.08 949.88, 916.48 948.86 C 918.88 947.85, 920.48 946.44, 923.62 945.63 C 926.75 944.82, 928.87 944.57, 932.17 944.82 C 935.48 945.07, 937.46 945.48, 940.14 946.87 C 942.81 948.25, 944.06 949.39, 945.55 951.76 C 947.03 954.13, 947.45 955.74, 947.57 958.73 C 947.68 961.73, 947.38 963.59, 946.13 966.72 C 944.87 969.85, 943.74 971.65, 941.29 974.38 C 938.84 977.11, 937.07 978.54, 933.88 980.37 C 930.68 982.20, 928.70 982.93, 925.31 983.52 C 921.92 984.10, 919.93 983.93, 916.92 983.29 C 913.90 982.64, 912.41 981.93, 910.23 980.28 C 908.06 978.62, 907.18 977.33, 906.06 974.99 C 904.94 972.65, 904.63 971.14, 904.62 968.59 C 904.61 966.03, 905.17 964.54, 906.02 962.23 C 906.88 959.92, 907.68 958.82, 908.90 957.05 C 910.11 955.27, 911.02 954.81, 912.09 953.36 C 913.17 951.90, 913.86 951.15, 914.27 949.77 C 914.68 948.38, 914.75 947.46, 914.15 946.43 C 913.54 945.41, 913.12 945.03, 911.24 944.65 C 909.36 944.26, 908.21 944.26, 904.74 944.50 C 901.28 944.74, 898.88 945.09, 893.93 945.85 C 888.98 946.60, 885.68 947.22, 880.00 948.28 C 874.32 949.34, 870.90 950.03, 865.51 951.14 C 860.12 952.26, 857.23 952.87, 853.04 953.86 C 848.84 954.85, 846.95 955.08, 844.53 956.08 C 842.10 957.07, 841.49 957.86, 840.91 958.83 C 840.32 959.81, 840.57 960.50, 841.60 960.96" style="stroke: black; fill: black;"/><path d="M 1015.53,889.13 C 1016.30 888.07, 1016.68 886.52, 1016.76 884.01 C 1016.84 881.50, 1016.77 879.66, 1015.94 876.59 C 1015.11 873.52, 1014.42 871.39, 1012.59 868.65 C 1010.76 865.92, 1009.47 864.51, 1006.78 862.93 C 1004.10 861.34, 1002.33 860.63, 999.18 860.72 C 996.03 860.81, 994.13 861.31, 991.02 863.37 C 987.91 865.44, 986.36 867.06, 983.63 871.04 C 980.89 875.02, 979.58 877.43, 977.34 883.28 C 975.11 889.13, 974.02 892.65, 972.46 900.29 C 970.91 907.94, 970.24 912.51, 969.56 921.50 C 968.88 930.48, 968.95 935.66, 969.07 945.22 C 969.20 954.79, 969.55 960.06, 970.19 969.33 C 970.83 978.61, 971.35 983.43, 972.28 991.60 C 973.21 999.77, 973.95 1003.70, 974.84 1010.19 C 975.72 1016.69, 976.11 1019.66, 976.71 1024.07 C 977.32 1028.47, 977.34 1029.92, 977.87 1032.21 C 978.41 1034.50, 978.97 1034.78, 979.40 1035.53 C 979.82 1036.27, 979.81 1035.83, 980.02 1035.93 C 980.22 1036.03, 980.16 1036.14, 980.41 1036.02 C 980.66 1035.90, 981.01 1036.25, 981.28 1035.35 C 981.55 1034.45, 982.06 1033.88, 981.77 1031.52 C 981.48 1029.15, 980.74 1027.86, 979.83 1023.53 C 978.92 1019.19, 978.33 1016.26, 977.23 1009.83 C 976.13 1003.39, 975.35 999.48, 974.32 991.36 C 973.30 983.23, 972.77 978.43, 972.11 969.20 C 971.45 959.97, 971.10 954.71, 971.02 945.20 C 970.93 935.69, 970.90 930.55, 971.67 921.67 C 972.44 912.79, 973.18 908.26, 974.88 900.82 C 976.58 893.37, 977.80 889.93, 980.18 884.43 C 982.56 878.94, 984.08 876.74, 986.77 873.35 C 989.46 869.96, 991.13 868.97, 993.62 867.47 C 996.12 865.97, 997.24 865.86, 999.26 865.86 C 1001.29 865.87, 1002.20 866.26, 1003.76 867.48 C 1005.32 868.71, 1005.93 869.79, 1007.06 871.98 C 1008.20 874.18, 1008.66 875.90, 1009.44 878.46 C 1010.23 881.01, 1010.28 882.59, 1010.98 884.76 C 1011.67 886.94, 1011.99 888.45, 1012.90 889.32 C 1013.81 890.19, 1014.75 890.19, 1015.53 889.13" style="stroke: black; fill: black;"/><path d="M 945.83,972.88 C 947.00 973.31, 948.10 973.26, 951.16 972.79 C 954.23 972.33, 956.16 971.47, 961.17 970.56 C 966.17 969.66, 970.24 969.05, 976.19 968.27 C 982.14 967.50, 985.91 967.27, 990.91 966.69 C 995.92 966.11, 999.20 966.10, 1001.22 965.38 C 1003.25 964.66, 1003.16 963.47, 1001.04 963.06 C 998.92 962.66, 995.68 963.08, 990.63 963.38 C 985.57 963.67, 981.78 963.91, 975.76 964.53 C 969.73 965.15, 965.61 965.74, 960.50 966.48 C 955.39 967.21, 953.24 967.39, 950.19 968.22 C 947.15 969.06, 946.15 969.73, 945.28 970.66 C 944.41 971.59, 944.65 972.45, 945.83 972.88" style="stroke: black; fill: black;"/><path d="M 1228.47,890.96 C 1228.50 889.88, 1228.25 888.75, 1226.85 887.20 C 1225.44 885.66, 1224.32 884.45, 1221.44 883.22 C 1218.56 881.98, 1216.54 881.53, 1212.44 881.03 C 1208.33 880.54, 1205.86 880.43, 1200.93 880.73 C 1196.00 881.03, 1193.13 881.41, 1187.78 882.52 C 1182.43 883.63, 1179.32 884.48, 1174.18 886.29 C 1169.04 888.11, 1166.24 889.27, 1162.09 891.59 C 1157.93 893.91, 1155.76 895.05, 1153.40 897.89 C 1151.03 900.72, 1150.11 902.59, 1150.26 905.77 C 1150.42 908.95, 1151.47 910.64, 1154.16 913.80 C 1156.86 916.95, 1159.08 918.32, 1163.74 921.55 C 1168.39 924.78, 1171.69 926.52, 1177.42 929.95 C 1183.15 933.37, 1186.67 935.11, 1192.40 938.67 C 1198.13 942.23, 1201.28 944.12, 1206.07 947.75 C 1210.87 951.38, 1213.26 953.31, 1216.38 956.80 C 1219.50 960.29, 1220.50 962.09, 1221.68 965.20 C 1222.85 968.31, 1222.86 969.60, 1222.25 972.37 C 1221.64 975.14, 1221.04 976.44, 1218.63 979.03 C 1216.22 981.62, 1214.43 983.03, 1210.22 985.32 C 1206.00 987.62, 1203.11 988.72, 1197.56 990.51 C 1192.02 992.29, 1188.54 993.17, 1182.50 994.25 C 1176.45 995.33, 1172.91 995.76, 1167.34 995.92 C 1161.77 996.08, 1158.83 995.73, 1154.64 995.05 C 1150.46 994.37, 1149.00 993.33, 1146.44 992.53 C 1143.87 991.73, 1142.93 991.07, 1141.83 991.06 C 1140.74 991.06, 1140.33 991.47, 1140.96 992.51 C 1141.60 993.54, 1142.37 994.99, 1145.00 996.22 C 1147.63 997.45, 1149.64 998.07, 1154.13 998.64 C 1158.62 999.21, 1161.68 999.34, 1167.46 999.06 C 1173.24 998.78, 1176.81 998.34, 1183.03 997.25 C 1189.24 996.16, 1192.75 995.35, 1198.53 993.61 C 1204.31 991.87, 1207.32 990.92, 1211.93 988.55 C 1216.54 986.18, 1218.72 984.84, 1221.57 981.76 C 1224.42 978.69, 1225.48 976.76, 1226.18 973.18 C 1226.88 969.60, 1226.56 967.58, 1225.07 963.87 C 1223.57 960.17, 1222.17 958.34, 1218.71 954.66 C 1215.25 950.98, 1212.74 949.14, 1207.78 945.47 C 1202.81 941.80, 1199.64 939.93, 1193.89 936.30 C 1188.13 932.67, 1184.63 930.87, 1179.01 927.35 C 1173.39 923.82, 1170.16 921.91, 1165.80 918.68 C 1161.44 915.44, 1159.51 913.79, 1157.21 911.16 C 1154.92 908.54, 1154.45 907.67, 1154.31 905.55 C 1154.17 903.43, 1154.59 902.72, 1156.51 900.57 C 1158.44 898.43, 1160.17 897.03, 1163.93 894.83 C 1167.70 892.63, 1170.44 891.33, 1175.35 889.57 C 1180.25 887.81, 1183.32 886.98, 1188.47 886.02 C 1193.61 885.06, 1196.45 884.77, 1201.06 884.76 C 1205.68 884.76, 1207.99 885.10, 1211.54 885.99 C 1215.09 886.88, 1216.40 888.11, 1218.83 889.20 C 1221.26 890.28, 1222.12 890.74, 1223.70 891.42 C 1225.27 892.11, 1225.77 892.70, 1226.72 892.61 C 1227.68 892.52, 1228.45 892.04, 1228.47 890.96" style="stroke: black; fill: black;"/><path d="M 1238.53,939.42 C 1239.05 940.16, 1239.54 940.37, 1241.14 940.90 C 1242.75 941.43, 1243.85 941.83, 1246.54 942.07 C 1249.24 942.31, 1251.11 941.78, 1254.62 942.12 C 1258.13 942.46, 1260.40 942.73, 1264.10 943.78 C 1267.80 944.83, 1269.87 945.59, 1273.11 947.37 C 1276.36 949.14, 1277.97 950.30, 1280.35 952.66 C 1282.73 955.01, 1283.70 956.42, 1285.01 959.13 C 1286.33 961.85, 1286.70 963.30, 1286.94 966.23 C 1287.17 969.17, 1287.01 970.76, 1286.20 973.81 C 1285.39 976.86, 1284.66 978.53, 1282.87 981.48 C 1281.08 984.43, 1279.71 986.01, 1277.26 988.56 C 1274.81 991.12, 1273.06 992.37, 1270.61 994.25 C 1268.17 996.13, 1266.69 996.60, 1265.02 997.96 C 1263.34 999.31, 1262.56 999.91, 1262.23 1001.02 C 1261.89 1002.13, 1262.19 1002.93, 1263.33 1003.51 C 1264.47 1004.09, 1265.59 1004.34, 1267.93 1003.91 C 1270.27 1003.49, 1271.67 1002.42, 1275.02 1001.38 C 1278.38 1000.35, 1280.65 999.59, 1284.73 998.74 C 1288.81 997.89, 1291.36 997.54, 1295.42 997.15 C 1299.48 996.75, 1301.51 996.65, 1305.02 996.74 C 1308.52 996.83, 1310.25 997.48, 1312.94 997.58 C 1315.63 997.69, 1316.76 997.52, 1318.47 997.28 C 1320.19 997.05, 1320.87 996.92, 1321.51 996.43 C 1322.15 995.94, 1322.19 995.43, 1321.66 994.83 C 1321.12 994.23, 1320.50 993.98, 1318.84 993.43 C 1317.17 992.88, 1316.10 992.36, 1313.34 992.08 C 1310.57 991.79, 1308.66 991.90, 1305.00 992.02 C 1301.33 992.14, 1299.21 992.29, 1295.00 992.67 C 1290.79 993.04, 1288.24 993.38, 1283.94 993.90 C 1279.64 994.41, 1277.14 994.53, 1273.50 995.24 C 1269.85 995.94, 1267.94 996.29, 1265.72 997.42 C 1263.50 998.55, 1262.86 999.73, 1262.39 1000.90 C 1261.92 1002.06, 1262.25 1002.85, 1263.35 1003.23 C 1264.46 1003.60, 1265.78 1003.71, 1267.92 1002.77 C 1270.05 1001.82, 1271.44 1000.67, 1274.03 998.49 C 1276.61 996.31, 1278.27 994.79, 1280.86 991.88 C 1283.44 988.97, 1284.96 987.30, 1286.96 983.93 C 1288.95 980.56, 1289.89 978.66, 1290.85 975.04 C 1291.80 971.42, 1292.05 969.41, 1291.72 965.82 C 1291.40 962.22, 1290.85 960.34, 1289.21 957.06 C 1287.57 953.78, 1286.30 952.16, 1283.52 949.43 C 1280.74 946.70, 1278.91 945.48, 1275.32 943.43 C 1271.73 941.37, 1269.52 940.56, 1265.57 939.17 C 1261.62 937.77, 1259.27 937.30, 1255.56 936.45 C 1251.85 935.60, 1249.91 935.05, 1247.04 934.90 C 1244.18 934.76, 1242.96 935.26, 1241.25 935.72 C 1239.55 936.18, 1239.07 936.47, 1238.53 937.21 C 1237.98 937.94, 1238.00 938.68, 1238.53 939.42" style="stroke: black; fill: black;"/><path d="M 1325.20,972.52 C 1324.82 973.32, 1324.85 973.85, 1325.24 975.25 C 1325.63 976.65, 1325.88 977.66, 1327.15 979.54 C 1328.42 981.41, 1329.37 982.67, 1331.58 984.62 C 1333.78 986.58, 1335.32 987.61, 1338.17 989.31 C 1341.01 991.01, 1342.62 992.02, 1345.80 993.12 C 1348.98 994.21, 1350.76 994.69, 1354.08 994.80 C 1357.39 994.92, 1359.19 994.72, 1362.37 993.68 C 1365.55 992.63, 1367.08 991.71, 1369.99 989.58 C 1372.89 987.44, 1374.30 985.89, 1376.90 983.00 C 1379.50 980.12, 1380.77 978.24, 1382.99 975.16 C 1385.20 972.07, 1386.33 970.33, 1387.96 967.59 C 1389.59 964.85, 1390.44 963.38, 1391.14 961.47 C 1391.83 959.56, 1391.61 958.62, 1391.43 958.05 C 1391.26 957.48, 1390.72 957.55, 1390.27 958.61 C 1389.83 959.66, 1389.29 960.41, 1389.21 963.31 C 1389.13 966.21, 1389.74 968.33, 1389.88 973.08 C 1390.01 977.84, 1390.06 980.71, 1389.90 987.08 C 1389.74 993.46, 1389.58 997.35, 1389.08 1004.95 C 1388.59 1012.55, 1388.23 1016.88, 1387.43 1025.08 C 1386.62 1033.27, 1386.24 1037.84, 1385.06 1045.93 C 1383.87 1054.01, 1383.27 1058.24, 1381.50 1065.49 C 1379.74 1072.73, 1378.61 1076.36, 1376.22 1082.15 C 1373.82 1087.94, 1372.38 1090.54, 1369.54 1094.43 C 1366.69 1098.33, 1365.05 1099.73, 1362.00 1101.63 C 1358.95 1103.53, 1357.32 1103.86, 1354.27 1103.95 C 1351.22 1104.04, 1349.70 1103.51, 1346.76 1102.09 C 1343.82 1100.68, 1342.15 1099.49, 1339.59 1096.87 C 1337.03 1094.25, 1335.64 1092.52, 1333.95 1089.01 C 1332.26 1085.51, 1331.62 1083.43, 1331.12 1079.34 C 1330.63 1075.24, 1332.03 1070.73, 1331.48 1068.52 C 1330.93 1066.31, 1329.23 1066.05, 1328.36 1068.30 C 1327.49 1070.54, 1326.75 1075.24, 1327.11 1079.74 C 1327.48 1084.24, 1328.31 1086.76, 1330.18 1090.79 C 1332.05 1094.83, 1333.52 1096.86, 1336.47 1099.90 C 1339.42 1102.95, 1341.34 1104.41, 1344.94 1106.02 C 1348.55 1107.63, 1350.71 1108.24, 1354.50 1107.95 C 1358.29 1107.65, 1360.41 1106.91, 1363.90 1104.54 C 1367.39 1102.18, 1369.01 1100.41, 1371.94 1096.12 C 1374.87 1091.83, 1376.20 1089.11, 1378.55 1083.09 C 1380.90 1077.07, 1381.98 1073.38, 1383.71 1066.01 C 1385.44 1058.64, 1386.02 1054.38, 1387.22 1046.24 C 1388.41 1038.10, 1388.80 1033.53, 1389.68 1025.31 C 1390.56 1017.09, 1390.95 1012.76, 1391.62 1005.14 C 1392.29 997.53, 1392.52 993.63, 1393.04 987.25 C 1393.56 980.87, 1393.76 978.03, 1394.24 973.24 C 1394.71 968.44, 1395.51 966.37, 1395.40 963.28 C 1395.30 960.20, 1394.73 959.21, 1393.71 957.80 C 1392.69 956.39, 1391.71 956.04, 1390.30 956.25 C 1388.89 956.46, 1388.09 957.14, 1386.67 958.84 C 1385.24 960.55, 1384.72 962.08, 1383.16 964.77 C 1381.60 967.46, 1380.86 969.32, 1378.87 972.30 C 1376.88 975.29, 1375.60 977.06, 1373.22 979.69 C 1370.85 982.32, 1369.48 983.67, 1366.99 985.45 C 1364.50 987.23, 1363.29 987.83, 1360.76 988.60 C 1358.23 989.36, 1356.94 989.45, 1354.35 989.27 C 1351.76 989.09, 1350.36 988.75, 1347.83 987.71 C 1345.29 986.67, 1343.91 985.76, 1341.67 984.06 C 1339.42 982.37, 1338.41 981.04, 1336.60 979.24 C 1334.79 977.45, 1334.01 976.47, 1332.61 975.07 C 1331.20 973.68, 1330.67 973.04, 1329.58 972.28 C 1328.48 971.51, 1328.01 971.20, 1327.13 971.25 C 1326.25 971.30, 1325.58 971.72, 1325.20 972.52" style="stroke: black; fill: black;"/><path d="M 1419.44,970.06 C 1418.97 970.98, 1418.91 971.67, 1419.21 974.00 C 1419.51 976.34, 1420.14 977.66, 1420.94 981.72 C 1421.75 985.79, 1422.53 988.56, 1423.24 994.35 C 1423.94 1000.13, 1424.19 1003.81, 1424.45 1010.64 C 1424.71 1017.48, 1424.63 1021.51, 1424.52 1028.53 C 1424.40 1035.54, 1424.22 1039.46, 1423.86 1045.70 C 1423.50 1051.93, 1423.20 1055.17, 1422.70 1059.69 C 1422.19 1064.20, 1421.48 1066.06, 1421.34 1068.26 C 1421.20 1070.46, 1421.69 1070.99, 1422.00 1070.69 C 1422.31 1070.38, 1423.09 1069.48, 1422.89 1066.74 C 1422.68 1064.00, 1421.67 1061.83, 1420.98 1056.99 C 1420.29 1052.16, 1419.79 1048.80, 1419.43 1042.56 C 1419.08 1036.32, 1418.99 1032.59, 1419.21 1025.80 C 1419.43 1019.00, 1419.63 1015.28, 1420.55 1008.60 C 1421.46 1001.91, 1422.09 998.35, 1423.78 992.36 C 1425.47 986.37, 1426.50 983.51, 1429.01 978.66 C 1431.52 973.80, 1433.04 971.53, 1436.31 968.10 C 1439.59 964.66, 1441.59 963.33, 1445.37 961.49 C 1449.14 959.66, 1451.54 959.16, 1455.19 958.93 C 1458.85 958.70, 1460.72 959.10, 1463.64 960.35 C 1466.56 961.60, 1467.95 962.76, 1469.79 965.18 C 1471.62 967.60, 1472.39 969.21, 1472.81 972.44 C 1473.23 975.68, 1473.08 977.72, 1471.88 981.36 C 1470.68 984.99, 1469.53 987.16, 1466.81 990.63 C 1464.08 994.10, 1462.09 995.97, 1458.25 998.71 C 1454.41 1001.46, 1451.70 1002.65, 1447.61 1004.36 C 1443.52 1006.08, 1441.00 1006.26, 1437.79 1007.28 C 1434.57 1008.30, 1432.71 1008.62, 1431.53 1009.46 C 1430.36 1010.29, 1430.46 1011.11, 1431.91 1011.46 C 1433.36 1011.80, 1435.33 1011.87, 1438.79 1011.18 C 1442.24 1010.49, 1444.84 1009.90, 1449.17 1008.01 C 1453.50 1006.13, 1456.31 1004.75, 1460.44 1001.75 C 1464.57 998.75, 1466.75 996.84, 1469.82 993.02 C 1472.89 989.21, 1474.32 986.90, 1475.78 982.68 C 1477.24 978.45, 1477.63 975.93, 1477.12 971.90 C 1476.62 967.87, 1475.64 965.61, 1473.27 962.52 C 1470.90 959.44, 1468.94 957.95, 1465.26 956.46 C 1461.59 954.96, 1459.19 954.67, 1454.90 955.05 C 1450.60 955.43, 1447.96 956.19, 1443.79 958.37 C 1439.61 960.55, 1437.49 962.17, 1434.03 965.96 C 1430.56 969.76, 1429.03 972.23, 1426.47 977.37 C 1423.90 982.50, 1422.91 985.47, 1421.21 991.64 C 1419.51 997.82, 1418.90 1001.43, 1417.95 1008.24 C 1416.99 1015.04, 1416.80 1018.79, 1416.42 1025.67 C 1416.05 1032.56, 1416.04 1036.32, 1416.09 1042.67 C 1416.14 1049.03, 1416.33 1052.42, 1416.67 1057.45 C 1417.02 1062.47, 1416.86 1064.93, 1417.82 1067.79 C 1418.77 1070.65, 1420.03 1071.47, 1421.46 1071.74 C 1422.90 1072.00, 1424.03 1071.46, 1424.97 1069.11 C 1425.90 1066.77, 1425.80 1064.66, 1426.14 1060.00 C 1426.49 1055.35, 1426.48 1052.11, 1426.69 1045.83 C 1426.90 1039.54, 1427.07 1035.62, 1427.20 1028.57 C 1427.34 1021.52, 1427.44 1017.48, 1427.36 1010.57 C 1427.27 1003.66, 1427.15 999.94, 1426.79 994.02 C 1426.43 988.11, 1426.09 985.21, 1425.55 980.98 C 1425.01 976.74, 1424.88 975.16, 1424.09 972.85 C 1423.29 970.53, 1422.49 969.96, 1421.56 969.40 C 1420.63 968.84, 1419.91 969.14, 1419.44 970.06" style="stroke: black; fill: black;"/><path d="M 1503.29,1000.78 C 1504.48 1001.45, 1506.09 1002.01, 1508.99 1001.67 C 1511.88 1001.33, 1513.87 1000.57, 1517.77 999.07 C 1521.67 997.57, 1524.33 996.56, 1528.49 994.16 C 1532.65 991.77, 1534.86 990.14, 1538.55 987.10 C 1542.25 984.07, 1544.08 982.33, 1546.96 978.99 C 1549.83 975.64, 1551.19 973.83, 1552.93 970.38 C 1554.68 966.93, 1555.42 965.06, 1555.68 961.73 C 1555.95 958.39, 1555.64 956.52, 1554.26 953.69 C 1552.88 950.86, 1551.62 949.22, 1548.78 947.56 C 1545.94 945.90, 1543.85 945.41, 1540.04 945.38 C 1536.24 945.35, 1533.89 945.84, 1529.74 947.43 C 1525.60 949.01, 1523.15 950.30, 1519.32 953.30 C 1515.50 956.31, 1513.43 958.36, 1510.62 962.45 C 1507.82 966.54, 1506.45 969.11, 1505.31 973.76 C 1504.17 978.41, 1503.92 981.19, 1504.93 985.70 C 1505.94 990.20, 1507.15 992.65, 1510.36 996.30 C 1513.56 999.95, 1515.99 1001.61, 1520.95 1003.95 C 1525.90 1006.28, 1529.10 1007.09, 1535.13 1007.96 C 1541.17 1008.82, 1544.78 1008.81, 1551.11 1008.28 C 1557.45 1007.76, 1560.91 1007.05, 1566.81 1005.34 C 1572.70 1003.64, 1575.72 1002.39, 1580.59 999.78 C 1585.45 997.17, 1587.70 995.52, 1591.15 992.27 C 1594.59 989.02, 1595.86 987.07, 1597.80 983.52 C 1599.74 979.97, 1600.27 978.00, 1600.86 974.52 C 1601.45 971.05, 1601.30 969.13, 1600.75 966.15 C 1600.20 963.17, 1599.22 961.68, 1598.10 959.61 C 1596.98 957.54, 1596.25 956.76, 1595.15 955.79 C 1594.05 954.82, 1593.26 954.93, 1592.61 954.75 C 1591.97 954.57, 1592.19 954.85, 1591.91 954.89 C 1591.62 954.93, 1591.45 954.67, 1591.18 954.95 C 1590.91 955.22, 1590.53 955.51, 1590.56 956.26 C 1590.60 957.00, 1590.82 957.52, 1591.35 958.69 C 1591.88 959.85, 1592.42 960.35, 1593.22 962.08 C 1594.02 963.80, 1594.73 964.95, 1595.34 967.32 C 1595.95 969.69, 1596.46 971.06, 1596.25 973.95 C 1596.05 976.83, 1595.80 978.56, 1594.30 981.73 C 1592.80 984.91, 1591.80 986.76, 1588.76 989.83 C 1585.72 992.90, 1583.66 994.54, 1579.11 997.08 C 1574.55 999.63, 1571.64 1000.89, 1565.99 1002.55 C 1560.35 1004.21, 1556.96 1004.90, 1550.88 1005.38 C 1544.80 1005.85, 1541.29 1005.80, 1535.58 1004.93 C 1529.88 1004.05, 1526.88 1003.17, 1522.36 1000.98 C 1517.84 998.80, 1515.76 997.22, 1512.98 994.01 C 1510.21 990.79, 1509.29 988.79, 1508.47 984.92 C 1507.65 981.06, 1507.83 978.73, 1508.88 974.66 C 1509.94 970.60, 1511.15 968.24, 1513.73 964.61 C 1516.30 960.98, 1518.26 959.10, 1521.77 956.50 C 1525.27 953.90, 1527.62 952.84, 1531.26 951.62 C 1534.89 950.40, 1536.97 950.27, 1539.94 950.38 C 1542.91 950.50, 1544.14 951.10, 1546.11 952.20 C 1548.08 953.31, 1548.86 954.07, 1549.79 955.91 C 1550.73 957.74, 1550.95 958.86, 1550.79 961.37 C 1550.62 963.88, 1550.36 965.47, 1548.99 968.48 C 1547.61 971.48, 1546.48 973.29, 1543.90 976.40 C 1541.31 979.51, 1539.56 981.24, 1536.06 984.03 C 1532.56 986.82, 1530.39 988.28, 1526.40 990.36 C 1522.42 992.44, 1519.83 993.23, 1516.12 994.41 C 1512.42 995.60, 1510.51 995.51, 1507.89 996.29 C 1505.27 997.07, 1503.95 997.42, 1503.03 998.31 C 1502.11 999.21, 1502.10 1000.11, 1503.29 1000.78" style="stroke: black; fill: black;"/></svg>